<?xml version="1.0" encoding="utf-8"?>
<svg version="1.1" id="Layer_1" xmlns="http://www.w3.org/2000/svg" xmlns:xlink="http://www.w3.org/1999/xlink" x="0px" y="0px"
	 viewBox="0 0 935.107 1671.484" enable-background="new 0 0 935.107 1671.484" xml:space="preserve">
<path d="M741.126,1029.679c57.181-509.559-54.578-817.801-273.634-993.938C248.56,211.879,136.799,520.12,193.982,1029.679
	C6.557,1197.134-26.563,1400.189,80.734,1635.742c16.249-167.951,62.267-293.108,151.95-355.748l62.391,159.516l-30.391,62.144
	c262.534-3.554,143.204-3.554,405.738,0l-30.391-62.144l62.393-159.516c89.681,62.64,135.701,187.798,151.95,355.748
	C961.669,1400.189,928.55,1197.134,741.126,1029.679z M466.128,589.79c-66.222,0-119.905-53.684-119.905-119.906
	s53.683-119.906,119.905-119.906s119.905,53.684,119.905,119.906S532.35,589.79,466.128,589.79z"/>
</svg>
